<svg xmlns="http://www.w3.org/2000/svg" width="1600" height="900" viewBox="0 0 1600 900" role="img" aria-label="Implementation Steps">
  <defs>
    <linearGradient id="bg" x1="0" y1="0" x2="1" y2="1">
      <stop offset="0%" stop-color="#f8fbff"/>
      <stop offset="100%" stop-color="#eef4ff"/>
    </linearGradient>
  </defs>
  <rect width="1600" height="900" fill="url(#bg)"/>
  <rect x="90" y="90" width="1420" height="720" rx="34" fill="#ffffff" stroke="#dbe5f3"/>
  <rect x="140" y="140" width="260" height="44" rx="22" fill="#eaf2ff"/>
  <text x="170" y="168" font-family="Arial, Helvetica, sans-serif" font-size="20" fill="#2563eb" font-weight="700">Workflow Visual</text>

  <text x="140" y="280" font-family="Arial, Helvetica, sans-serif" font-size="52" fill="#0f172a" font-weight="700">Implementation Steps</text>
  <text x="140" y="350" font-family="Arial, Helvetica, sans-serif" font-size="28" fill="#475569">checklist with steps</text>

  <rect x="140" y="430" width="350" height="170" rx="24" fill="#f8fafc" stroke="#e2e8f0"/>
  <rect x="560" y="430" width="350" height="170" rx="24" fill="#f8fafc" stroke="#e2e8f0"/>
  <rect x="980" y="430" width="350" height="170" rx="24" fill="#f8fafc" stroke="#e2e8f0"/>

  <text x="175" y="500" font-family="Arial, Helvetica, sans-serif" font-size="24" fill="#0f172a" font-weight="700">Input</text>
  <text x="595" y="500" font-family="Arial, Helvetica, sans-serif" font-size="24" fill="#0f172a" font-weight="700">Decision</text>
  <text x="1015" y="500" font-family="Arial, Helvetica, sans-serif" font-size="24" fill="#0f172a" font-weight="700">Output</text>

  <line x1="490" y1="515" x2="560" y2="515" stroke="#94a3b8" stroke-width="6"/>
  <polygon points="560,515 540,503 540,527" fill="#94a3b8"/>
  <line x1="910" y1="515" x2="980" y2="515" stroke="#94a3b8" stroke-width="6"/>
  <polygon points="980,515 960,503 960,527" fill="#94a3b8"/>

  <text x="140" y="705" font-family="Arial, Helvetica, sans-serif" font-size="22" fill="#64748b">Generated by MingMong</text>
</svg>